*******************************************************************************
*               Khurchi Samrat {2010-MARATHI} x264 AAC 1CD DVDRip {BDU}       *
*******************************************************************************
-------------------------------------------------------------------------------
                             *General Information*
-------------------------------------------------------------------------------

General
Name                             : Khurchi Samrat 
Format                           : MPEG-4
Format profile                   : Base Media
Codec ID                         : isom
File size                        : 697 MiB
Duration                         : 2h 11mn
Overall bit rate                 : 744 Kbps


Video
ID                               : 1
Format                           : AVC
Format/Info                      : Advanced Video Codec
Format profile                   : High@L2.1
Format settings, CABAC           : Yes
Format settings, ReFrames        : 5 frames
Codec ID                         : avc1
Codec ID/Info                    : Advanced Video Coding
Duration                         : 2h 11mn
Bit rate mode                    : Variable
Bit rate                         : 677 Kbps
Maximum bit rate                 : 2 507 Kbps
Width                            : 608 pixels
Height                           : 320 pixels
Display aspect ratio             : 1.900
Frame rate mode                  : Constant
Frame rate                       : 23.976 fps
Color space                      : YUV
Chroma subsampling               : 4:2:0
Bit depth                        : 8 bits
Scan type                        : Progressive
Bits/(Pixel*Frame)               : 0.145
Stream size                      : 634 MiB (91%)


Audio
ID                               : 2
Format                           : AAC
Format/Info                      : Advanced Audio Codec
Format version                   : Version 4
Format profile                   : LC
Format settings, SBR             : Yes
Format settings, PS              : No
Codec ID                         : 40
Duration                         : 2h 11mn
Bit rate mode                    : Variable
Bit rate                         : 64.0 Kbps
Maximum bit rate                 : 72.0 Kbps
Channel(s)                       : 2 channels
Channel positions                : Front: L R
Sampling rate                    : 44.1 KHz
Stream size                      : 60.0 MiB (9%)


Source                           : DVD 9 
Ripper                           : Nordmariner

-------------------------------------------------------------------------------
                              *Post Information*
-------------------------------------------------------------------------------
Posted by............: Best Desi Uploader

-------------------------------------------------------------------------------
                                *Releaser Notes*
-------------------------------------------------------------------------------
1. Torrent Uploaded By DjMaster [BDU]
2. Please DON\'T Forget For Seed.
3. Thank You!

-------------------------------------------------------------------------------		